<svg id="7a93e826-bca4-4035-8071-b11119161ffd" data-name="Layer 1" xmlns="http://www.w3.org/2000/svg" viewBox="0 0 220.2 30"><path d="M175.43,30h4.4a13.4,13.4,0,0,0,4.53-.51,9.57,9.57,0,0,0,4-2.6,12.07,12.07,0,0,0,2.53-4.71,25.23,25.23,0,0,0,.9-7.21,25.13,25.13,0,0,0-.9-7.21,12.08,12.08,0,0,0-2.53-4.71,9.6,9.6,0,0,0-4-2.6A12.72,12.72,0,0,0,180.21,0h-4.79V2.49h3.85a11.08,11.08,0,0,1,4.11.48,6.39,6.39,0,0,1,2.92,2.32,10.87,10.87,0,0,1,1.59,4,28.2,28.2,0,0,1,.5,5.73,28.44,28.44,0,0,1-.5,5.77,10.36,10.36,0,0,1-1.62,4A6.6,6.6,0,0,1,183.38,27a11.42,11.42,0,0,1-4.2.52h-3.75V30Z"/><path d="M163.14,30h3.06V0h-3.06V30Z"/><path d="M139.93,28.56a10.83,10.83,0,0,0,2.3,1,11.9,11.9,0,0,0,3.45.45,9.91,9.91,0,0,0,3.7-.63,7.3,7.3,0,0,0,2.57-1.68,6.64,6.64,0,0,0,1.5-2.46,9.3,9.3,0,0,0,.49-3,8.2,8.2,0,0,0-.5-3A8.29,8.29,0,0,0,152.14,17a10.63,10.63,0,0,0-1.78-1.7c-0.68-.51-1.35-1-2-1.39l-1.87-1.24a9.27,9.27,0,0,1-1.62-1.39,6.65,6.65,0,0,1-1.15-1.74,5.51,5.51,0,0,1-.45-2.28,4.68,4.68,0,0,1,1.41-3.65,5.29,5.29,0,0,1,3.66-1.25,7.85,7.85,0,0,1,3.92,1l0.85-2.15a10.68,10.68,0,0,0-2-.78A10.38,10.38,0,0,0,145,.52,7.12,7.12,0,0,0,142.56,2,6.88,6.88,0,0,0,141,4.33a7.82,7.82,0,0,0-.58,3.06,8.11,8.11,0,0,0,.52,3,8.29,8.29,0,0,0,1.36,2.27,10.68,10.68,0,0,0,1.86,1.72l2,1.45,1.67,1.2a9,9,0,0,1,1.51,1.4,6.85,6.85,0,0,1,1.08,1.74,5.66,5.66,0,0,1,.42,2.23,5.18,5.18,0,0,1-1.39,3.78,5.23,5.23,0,0,1-3.89,1.42,8.8,8.8,0,0,1-2.86-.43,11.82,11.82,0,0,1-1.9-.86Z"/><path d="M123.89,30H127V2.48h6.88V0H117V2.48h6.88V30Z"/><path d="M76.79,0a11.44,11.44,0,0,0-4.37.8,7.89,7.89,0,0,0-3.27,2.54A12.91,12.91,0,0,0,67,8a28.21,28.21,0,0,0-.75,7,26.41,26.41,0,0,0,.77,6.81,13.62,13.62,0,0,0,2.14,4.66,8.55,8.55,0,0,0,3.22,2.67A9.54,9.54,0,0,0,76.5,30,15.88,15.88,0,0,0,80,29.63a13.72,13.72,0,0,0,2.5-.78V15.69H79.56V27.13l-0.32.1a8,8,0,0,1-2.4.32,6.46,6.46,0,0,1-3.07-.74,6.24,6.24,0,0,1-2.35-2.3A12.33,12.33,0,0,1,70,20.62a27.61,27.61,0,0,1-.5-5.64c0-4.1.56-7.22,1.68-9.28a6,6,0,0,1,5.73-3.25,7.74,7.74,0,0,1,2.81.48,10.8,10.8,0,0,1,1.74.86l0.86-2.32A10.61,10.61,0,0,0,76.79,0Z"/><path d="M53.51,30h3.06V0H53.51V30Z"/><path d="M41,30h3L38,16.86l0.42-.21a7.47,7.47,0,0,0,3.13-2.83,9.37,9.37,0,0,0,1.16-4.95A11.42,11.42,0,0,0,42,4.64,7.22,7.22,0,0,0,40,1.83a7.88,7.88,0,0,0-3-1.6,10.22,10.22,0,0,0-3-.22H28.22V2.51h5.23a7.73,7.73,0,0,1,2.22.16,4.59,4.59,0,0,1,1.92,1.07,5,5,0,0,1,1.34,2.07,9.28,9.28,0,0,1,.45,3.09c0,2.45-.61,4.2-1.82,5.21a6.16,6.16,0,0,1-3,1.25Z"/><path d="M0,30H13.46a11.18,11.18,0,0,0,2.65-.24,8.88,8.88,0,0,0,3.24-1.44,6.56,6.56,0,0,0,2.06-2.52,9,9,0,0,0,.74-3.86,7.4,7.4,0,0,0-1.37-4.74,8.43,8.43,0,0,0-3.55-2.58l-1-.41,1-.47A6.69,6.69,0,0,0,20,11.31,7.67,7.67,0,0,0,21.07,7a7.21,7.21,0,0,0-.77-3.5A6.31,6.31,0,0,0,18.25,1.3,7.13,7.13,0,0,0,15.34.11,16.94,16.94,0,0,0,13.12,0H11.35c-1,0-9,0-11.35,0V2.5H14a3.27,3.27,0,0,1,2,.7,4.47,4.47,0,0,1,1.38,1.75,6.61,6.61,0,0,1,.51,2.77c0,3.69-1.74,5.34-5.64,5.34H7.13v2.39h5.18a6.67,6.67,0,0,1,5,1.71,6.49,6.49,0,0,1,1.63,4.66,7.36,7.36,0,0,1-.51,2.89A4.62,4.62,0,0,1,17,26.61a4.22,4.22,0,0,1-2.42.89H0V30ZM0,15.44H3V13H0v2.39Z"/><path d="M208.14,30H220.2V27.51H205.63a4.22,4.22,0,0,1-2.42-.89,4.62,4.62,0,0,1-1.45-1.91,7.35,7.35,0,0,1-.51-2.89,6.5,6.5,0,0,1,1.63-4.66,6.68,6.68,0,0,1,5-1.71H213V13H208c-3.9,0-5.64-1.65-5.64-5.34a6.61,6.61,0,0,1,.51-2.77,4.49,4.49,0,0,1,1.38-1.75,3.28,3.28,0,0,1,2-.7h14V0c-2.35,0-10.37,0-11.35,0h-1.77a16.89,16.89,0,0,0-2.22.1A7.13,7.13,0,0,0,202,1.3a6.32,6.32,0,0,0-2.06,2.24,7.21,7.21,0,0,0-.77,3.5,7.66,7.66,0,0,0,1.08,4.27A6.69,6.69,0,0,0,203,13.75l1,0.47-1,.41a8.44,8.44,0,0,0-3.55,2.58,7.41,7.41,0,0,0-1.37,4.74,9,9,0,0,0,.74,3.86,6.54,6.54,0,0,0,2.06,2.52,8.84,8.84,0,0,0,3.24,1.44,11.27,11.27,0,0,0,2.67.24h1.37Zm9-16.94v2.39h3.07V13h-3.07Z"/><path d="M92,30h3.06V0H92V30Z"/><path d="M106.23,30h3.06V0h-3.06V30Z"/><path d="M99.16,15.59h3.06V13.08H99.16v2.51Z"/></svg>